<mxfile host="app.diagrams.net" modified="2021-03-11T08:12:07.451Z" agent="5.0 (Macintosh; Intel Mac OS X 10_15_7) AppleWebKit/537.36 (KHTML, like Gecko) Chrome/81.0.4044.138 Safari/537.36" etag="mj-GyWypVV2neKJQfiy0" version="14.4.7" type="github">
  <diagram id="Bk3Jj4w8NAcxCbiZS5lE" name="Page-1">
    <mxGraphModel dx="1298" dy="731" grid="1" gridSize="10" guides="1" tooltips="1" connect="1" arrows="1" fold="1" page="1" pageScale="1" pageWidth="1169" pageHeight="826" math="0" shadow="0">
      <root>
        <mxCell id="0" />
        <mxCell id="1" parent="0" />
        <mxCell id="Jl-Je15T5jP5_VRRulVy-5" style="edgeStyle=orthogonalEdgeStyle;rounded=0;orthogonalLoop=1;jettySize=auto;html=1;entryX=0;entryY=0.5;entryDx=0;entryDy=0;" edge="1" parent="1" source="Jl-Je15T5jP5_VRRulVy-1" target="Jl-Je15T5jP5_VRRulVy-2">
          <mxGeometry relative="1" as="geometry" />
        </mxCell>
        <mxCell id="Jl-Je15T5jP5_VRRulVy-1" value="a" style="rounded=1;whiteSpace=wrap;html=1;" vertex="1" parent="1">
          <mxGeometry x="200" y="210" width="110" height="60" as="geometry" />
        </mxCell>
        <mxCell id="Jl-Je15T5jP5_VRRulVy-4" style="edgeStyle=orthogonalEdgeStyle;rounded=0;orthogonalLoop=1;jettySize=auto;html=1;" edge="1" parent="1" source="Jl-Je15T5jP5_VRRulVy-2" target="Jl-Je15T5jP5_VRRulVy-3">
          <mxGeometry relative="1" as="geometry" />
        </mxCell>
        <mxCell id="Jl-Je15T5jP5_VRRulVy-2" value="b" style="rounded=0;whiteSpace=wrap;html=1;" vertex="1" parent="1">
          <mxGeometry x="465" y="210" width="120" height="60" as="geometry" />
        </mxCell>
        <mxCell id="Jl-Je15T5jP5_VRRulVy-3" value="c" style="whiteSpace=wrap;html=1;aspect=fixed;" vertex="1" parent="1">
          <mxGeometry x="770" y="200" width="80" height="80" as="geometry" />
        </mxCell>
      </root>
    </mxGraphModel>
  </diagram>
</mxfile>
